<?xml version="1.0" encoding="UTF-8" standalone="no"?>
<!DOCTYPE svg PUBLIC "-//W3C//DTD SVG 1.1//EN" "http://www.w3.org/Graphics/SVG/1.1/DTD/svg11.dtd">
<svg version="1.1" xmlns="http://www.w3.org/2000/svg" xmlns:xlink="http://www.w3.org/1999/xlink" preserveAspectRatio="xMidYMid meet" viewBox="0 0 100 100" width="100" height="100"><defs><path d="M78.48 28.77C77.96 28.33 77.64 28.05 77.51 27.94C76.63 27.2 76.11 26.13 76.07 24.98C76.06 24.73 76.07 25.01 76.05 24.56C76.03 24.01 75.84 23.48 75.5 23.04C75.22 22.67 75.21 22.66 75 22.39C74.4 21.6 73.71 20.88 72.95 20.23C72.77 20.08 72.32 19.69 71.59 19.07C70.81 18.56 70.33 18.23 70.14 18.11C68.65 17.11 67 16.4 65.25 15.99C64.69 15.86 65.74 16.11 65.21 15.98C63.36 15.55 61.47 15.35 59.58 15.38C58.83 15.39 60.15 15.37 59.58 15.38C57.1 15.42 54.64 15.92 52.34 16.85C52.17 16.92 51.74 17.1 51.05 17.38L47.42 19.1L48.75 20.23C51.23 19.94 52.78 19.75 53.4 19.68C55.44 19.44 57.51 19.67 59.44 20.36C59.49 20.37 59.6 20.41 59.78 20.48C60.71 20.89 61.29 21.15 61.52 21.26C62.65 21.76 63.55 22.66 64.05 23.79C64.31 24.35 64.05 23.78 64.25 24.22C64.92 25.7 64.78 27.43 63.89 28.79C63.6 29.23 62.89 30.32 61.74 32.08L64.83 34.71C65.16 34.32 65.37 34.08 65.45 33.98C66.75 32.45 68.43 31.27 70.32 30.57C70.49 30.51 70.91 30.35 71.57 30.11L76.73 34.49L76.43 37.11L81.39 41.46C82.64 40.42 83.42 39.77 83.73 39.51C84.92 38.51 85.89 37.28 86.6 35.9C86.79 35.52 87.27 34.57 88.04 33.05L83.3 29.02C82.82 29.13 82.52 29.19 82.41 29.22C81.32 29.45 80.19 29.38 79.14 29C79.05 28.97 78.83 28.89 78.48 28.77Z" id="hWVT4dkQd"></path><path d="M49.72 52.4C49.72 52.4 49.72 52.4 49.72 52.4C50.04 53.45 50.07 54.56 49.79 55.62C49.77 55.68 49.73 55.85 49.66 56.11C49.31 56.75 49.09 57.15 49 57.31C48.69 57.88 48.32 58.41 47.9 58.9C43.36 64.18 31.02 78.55 26.64 83.64C25.7 84.74 24.96 85.98 24.46 87.33C24.37 87.59 24.41 87.49 24.2 88.04C24.06 88.41 23.82 88.73 23.5 88.97C23.28 89.13 23.6 88.9 23.5 88.97C22.86 89.44 21.99 89.41 21.38 88.9C20.47 88.12 19.15 87 18.34 86.31C17.39 85.5 16.94 84.25 17.16 83.01C17.22 82.66 17.09 83.4 17.16 83C17.37 81.85 17.89 80.77 18.66 79.89C23.99 73.79 39.26 56.32 44.7 50.1C45.09 49.66 45.64 49.41 46.22 49.43C46.3 49.43 46.49 49.43 46.8 49.44L60.59 33.6L63.61 36.17L49.72 52.4Z" id="a1J9Fm4B8K"></path></defs><g><g><g><g><use xlink:href="#hWVT4dkQd" opacity="1" fill="#ffffff" fill-opacity="1"></use><g><use xlink:href="#hWVT4dkQd" opacity="1" fill-opacity="0" stroke="#ffffff" stroke-width="1" stroke-opacity="1"></use></g></g><g><use xlink:href="#a1J9Fm4B8K" opacity="1" fill="#ffffff" fill-opacity="1"></use><g><use xlink:href="#a1J9Fm4B8K" opacity="1" fill-opacity="0" stroke="#ffffff" stroke-width="1" stroke-opacity="1"></use></g></g></g></g></g></svg>