<?xml version="1.0" encoding="UTF-8" standalone="no"?>
<!DOCTYPE svg PUBLIC "-//W3C//DTD SVG 1.1//EN" "http://www.w3.org/Graphics/SVG/1.1/DTD/svg11.dtd">
<svg version="1.1" xmlns="http://www.w3.org/2000/svg" xmlns:xlink="http://www.w3.org/1999/xlink" preserveAspectRatio="xMidYMid meet" viewBox="0 0 320 320" width="320" height="320"><defs><path d="M135.42 85C137.42 85 138.67 85 139.17 85C141.91 85 144.55 83.92 146.5 81.99C146.97 81.52 146.65 81.84 147.44 81.05C148.38 80.13 149.57 79.5 150.86 79.24C152.08 79 152.55 78.91 153.47 78.73C155.8 78.27 158.16 78.04 160.53 78.04C161.2 78.04 162.89 78.04 165.58 78.05C168.32 78.34 170.04 78.52 170.72 78.59C174.96 79.04 179.09 80.2 182.95 82.01C184.39 82.69 182.63 81.86 184 82.51C188.08 84.42 191.92 86.81 195.44 89.62C196.98 90.85 194.94 89.23 196.14 90.18C200.76 93.87 204.65 98.4 207.58 103.53C207.82 103.94 208.41 104.98 209.36 106.63L213.67 115.36L209.11 115.36C204.53 110.87 201.67 108.06 200.52 106.93C197.03 103.51 192.82 100.9 188.2 99.31C188 99.24 187.51 99.07 186.71 98.79C183.94 98.06 182.21 97.6 181.52 97.42C178.66 96.66 175.64 96.89 172.93 98.06C171.41 98.71 172.23 98.36 171 98.89C167.46 100.42 164.97 103.68 164.45 107.51C164.28 108.74 163.85 111.84 163.16 116.8L152.54 116.79C152.54 115.59 152.54 114.83 152.54 114.53C152.54 109.75 151.21 105.05 148.7 100.98C148.46 100.59 147.86 99.62 146.9 98.06L129.19 98.05L125.36 103.28L108.11 103.51C107.39 99.69 106.94 97.3 106.76 96.35C106.08 92.73 106.21 89 107.15 85.44C107.41 84.45 108.06 81.97 109.11 78.01L125.38 78.02C126.21 79.01 126.72 79.62 126.93 79.87C128.63 81.89 130.86 83.42 133.36 84.28C133.63 84.38 134.32 84.61 135.42 85Z" id="e1iVtDpELp"></path><path d="M152.66 172.16C152.52 172.24 152.44 172.29 152.41 172.3C150.16 173.6 148.32 175.51 147.11 177.81C147.03 177.96 146.82 178.35 146.49 178.97C146.11 180.68 145.87 181.75 145.77 182.17C145.43 183.68 145.27 185.21 145.28 186.75C145.37 203.31 145.61 248.37 145.7 264.36C145.72 267.78 145.07 271.17 143.8 274.34C143.56 274.96 143.63 274.78 143.1 276.09C142.75 276.97 142.69 277.93 142.92 278.84C143.09 279.47 142.86 278.58 142.93 278.87C143.4 280.7 145.05 281.98 146.94 281.98C150.15 281.98 155.29 281.98 158.18 281.99C161.18 281.99 163.97 280.46 165.58 277.94C166.07 277.17 165.18 278.56 165.73 277.71C167.23 275.37 168 272.64 167.96 269.86C167.67 250.59 166.85 195.39 166.56 175.71C166.54 174.34 165.88 173.06 164.78 172.24C164.61 172.11 164.18 171.79 163.49 171.28L162.86 121.34L152.5 121.33L152.66 172.16Z" id="c5Q6q5i8A0"></path></defs><g><g><g><g><use xlink:href="#e1iVtDpELp" opacity="1" fill="#ffffff" fill-opacity="1"></use><g><use xlink:href="#e1iVtDpELp" opacity="1" fill-opacity="0" stroke="#ffffff" stroke-width="1" stroke-opacity="1"></use></g></g><g><use xlink:href="#c5Q6q5i8A0" opacity="1" fill="#ffffff" fill-opacity="1"></use><g><use xlink:href="#c5Q6q5i8A0" opacity="1" fill-opacity="0" stroke="#ffffff" stroke-width="1" stroke-opacity="1"></use></g></g></g></g></g></svg>