<?xml version="1.0" encoding="UTF-8" standalone="no"?>
<!DOCTYPE svg PUBLIC "-//W3C//DTD SVG 1.1//EN" "http://www.w3.org/Graphics/SVG/1.1/DTD/svg11.dtd">
<svg version="1.1" xmlns="http://www.w3.org/2000/svg" xmlns:xlink="http://www.w3.org/1999/xlink" preserveAspectRatio="xMidYMid meet" viewBox="0 0 100 100" width="100" height="100"><defs><path d="M63.78 47.59C63.78 55.31 57.51 61.57 49.8 61.57C42.09 61.57 35.83 55.31 35.83 47.59C35.83 39.88 42.09 33.62 49.8 33.62C57.51 33.62 63.78 39.88 63.78 47.59Z" id="bfZpxzGZ"></path><path d="M70.31 29.72C70.31 31.87 68.56 33.62 66.41 33.62C64.25 33.62 62.5 31.87 62.5 29.72C62.5 27.56 64.25 25.81 66.41 25.81C68.56 25.81 70.31 27.56 70.31 29.72Z" id="c12G6V772l"></path><path d="M22.96 28C22.45 29.48 22.18 31.04 22.18 32.6C22.18 38.19 22.18 53.46 22.18 59.27C22.18 59.27 22.32 61.86 22.32 61.86C22.5 63.61 22.5 63.64 22.58 64.4C22.98 68.24 25.41 71.57 28.94 73.12C29.46 73.34 28.14 72.77 29.37 73.31C30.8 73.93 32.35 74.26 33.91 74.26C40.82 74.26 59.24 74.26 66.16 74.26C67.66 74.26 69.15 73.97 70.54 73.42C71.71 72.96 71.04 73.22 71.7 72.96C74.61 71.81 76.69 69.21 77.2 66.12C77.32 65.36 77.03 67.12 77.2 66.12C77.61 63.58 77.82 61 77.82 58.42C77.82 52.65 77.82 38.74 77.82 32.85C77.82 30.66 77.45 28.49 76.72 26.42C76.4 25.48 76.78 26.57 76.52 25.82C75.63 23.28 73.5 21.37 70.88 20.75C69.81 20.5 70.36 20.63 69.17 20.35C66.74 19.78 64.25 19.49 61.76 19.49C56.13 19.49 42.72 19.49 37.02 19.49C34.76 19.49 32.52 19.78 30.34 20.36C29.3 20.64 30.41 20.34 29.61 20.56C26.81 21.3 24.56 23.38 23.61 26.12C23.33 26.94 23.39 26.75 22.96 28Z" id="a2UCYuZhYL"></path></defs><g><g><g><g><use xlink:href="#bfZpxzGZ" opacity="1" fill-opacity="0" stroke="#ffffff" stroke-width="6" stroke-opacity="1"></use></g></g><g><use xlink:href="#c12G6V772l" opacity="1" fill="#ffffff" fill-opacity="1"></use></g><g><g><use xlink:href="#a2UCYuZhYL" opacity="1" fill-opacity="0" stroke="#ffffff" stroke-width="5" stroke-opacity="1"></use></g></g></g></g></svg>