<?xml version="1.0" encoding="UTF-8" standalone="no"?>
<!DOCTYPE svg PUBLIC "-//W3C//DTD SVG 1.1//EN" "http://www.w3.org/Graphics/SVG/1.1/DTD/svg11.dtd">
<svg version="1.1" xmlns="http://www.w3.org/2000/svg" xmlns:xlink="http://www.w3.org/1999/xlink" preserveAspectRatio="xMidYMid meet" viewBox="0 0 100 100" width="100" height="100"><defs><path d="M12.68 78.09C12.94 76.66 13.11 75.76 13.17 75.4C13.59 73.11 15.54 71.41 17.87 71.33C21.53 71.2 28.69 70.94 32.39 70.81C34.75 70.72 36.91 69.48 38.17 67.49C39.74 65 39.64 65.16 40.51 63.78C43.57 58.94 49.96 57.48 54.83 60.5C56.17 61.34 53.25 59.52 55.05 60.64C55.05 60.64 67.91 68.95 67.91 68.95C68.66 69.45 66.67 68.12 67.95 68.98C70.39 70.61 73.21 71.58 76.14 71.78C78.21 71.92 81.24 72.12 83.64 72.28C85.44 72.4 87.07 73.4 88.01 74.94C88.4 75.57 89.1 76.74 89.75 77.8C89.83 77.93 89.73 78.09 89.58 78.09C79.97 78.09 55.94 78.09 17.5 78.09L12.68 78.09Z" id="g69XznT4Um"></path><path d="M76.89 63.94L73.61 58.46C73.55 58.37 73.51 58.32 73.49 58.3C71.42 55.41 71.45 51.51 73.56 48.65C74.23 47.76 72.85 49.61 73.56 48.65C75.6 45.91 79.01 44.55 82.38 45.15C82.38 45.15 82.38 45.15 82.38 45.15C83.64 45.43 84.44 45.61 84.75 45.68C87.28 46.25 89.51 47.73 91.01 49.84C91.52 50.56 90.54 49.19 91.01 49.84C92.57 52.04 92.69 54.95 91.32 57.26C91.06 57.69 91.77 56.5 91.32 57.26C90.48 58.68 89.42 59.95 88.18 61.04C87.52 61.62 86.22 62.77 85.26 63.61C85.02 63.82 84.88 64.12 84.88 64.44C84.88 65.44 84.88 67.07 84.88 67.86C84.88 68.69 84.16 69.33 83.33 69.24C82.04 69.09 80.66 68.92 79.61 68.8C78.06 68.62 76.89 67.3 76.89 65.74C76.89 65.5 76.89 64.9 76.89 63.94Z" id="b1pnP8ZiLC"></path><path d="M47.43 56.23C45.99 56.56 45.1 56.77 44.74 56.85C44.04 57.02 43.37 57.29 42.76 57.67C42.2 58.01 40.81 58.85 38.58 60.21L37.2 59.32L40.78 54.72L18.7 29.34L21.03 27.51L31.94 40.06L34.55 37.94L51.1 56.23L47.43 56.23Z" id="aM06iCZ0W"></path><path d="M32.98 55.08L32.98 57.33L38.06 57.33L38.06 60.22L32.98 60.22L32.98 62.94C31.26 62.94 30.19 62.94 29.77 62.94C29.22 62.94 28.77 62.49 28.77 61.95C28.77 60.51 28.77 58.22 28.77 57.04C28.77 55.8 29.83 54.83 31.06 54.93C31.32 54.95 31.95 55 32.98 55.08Z" id="cvBRZ4JuC"></path><path d="M17.01 53.38C17.73 52 17.23 50.31 15.88 49.54C15.46 49.31 16.36 49.82 15.88 49.54C14.58 48.81 13.73 47.49 13.59 46.02C13.54 45.49 13.54 45.47 13.47 44.74C13.41 44.13 14.04 43.68 14.61 43.93C16.34 44.71 19.87 46.29 21.5 47.02C22.66 47.54 23.66 48.35 24.4 49.38C24.67 49.76 24.17 49.06 24.4 49.38C25.24 50.54 25.37 52.08 24.75 53.37C23.55 55.89 20.79 61.66 19.54 64.26C19.06 65.28 19.26 66.5 20.06 67.29C20.2 67.43 20.54 67.78 21.09 68.33C18.13 68.4 16.28 68.45 15.54 68.47C14.45 68.5 13.45 69.04 12.84 69.94C12.41 70.56 11.75 71.51 11.24 72.26C11.03 72.56 10.57 72.46 10.5 72.11C10.31 71.2 10.09 70.14 9.94 69.42C9.69 68.22 9.87 66.98 10.43 65.9C12.01 62.9 15.52 56.22 17.01 53.38Z" id="ie9WcPSYq"></path></defs><g><g><g><g><use xlink:href="#g69XznT4Um" opacity="1" fill="#ffffff" fill-opacity="1"></use><g><use xlink:href="#g69XznT4Um" opacity="1" fill-opacity="0" stroke="#ffffff" stroke-width="2" stroke-opacity="1"></use></g></g><g><use xlink:href="#b1pnP8ZiLC" opacity="1" fill="#ffffff" fill-opacity="1"></use><g><use xlink:href="#b1pnP8ZiLC" opacity="1" fill-opacity="0" stroke="#ffffff" stroke-width="2" stroke-opacity="1"></use></g></g><g><use xlink:href="#aM06iCZ0W" opacity="1" fill="#ffffff" fill-opacity="1"></use><g><use xlink:href="#aM06iCZ0W" opacity="1" fill-opacity="0" stroke="#ffffff" stroke-width="2" stroke-opacity="1"></use></g></g><g><use xlink:href="#cvBRZ4JuC" opacity="1" fill="#ffffff" fill-opacity="1"></use><g><use xlink:href="#cvBRZ4JuC" opacity="1" fill-opacity="0" stroke="#ffffff" stroke-width="2" stroke-opacity="1"></use></g></g><g><use xlink:href="#ie9WcPSYq" opacity="1" fill="#ffffff" fill-opacity="1"></use><g><use xlink:href="#ie9WcPSYq" opacity="1" fill-opacity="0" stroke="#ffffff" stroke-width="2" stroke-opacity="1"></use></g></g></g></g></g></svg>