<?xml version="1.0" encoding="UTF-8" standalone="no"?>
<!DOCTYPE svg PUBLIC "-//W3C//DTD SVG 1.1//EN" "http://www.w3.org/Graphics/SVG/1.1/DTD/svg11.dtd">
<svg version="1.1" xmlns="http://www.w3.org/2000/svg" xmlns:xlink="http://www.w3.org/1999/xlink" preserveAspectRatio="xMidYMid meet" viewBox="0 0 320 320" width="320" height="320"><defs><path d="M256.65 100C263.55 100 269.15 105.6 269.15 112.5C269.15 139.57 269.15 208.3 269.15 235.37C269.15 242.28 263.55 247.87 256.65 247.87C215.32 247.87 103.83 247.87 62.5 247.87C55.6 247.87 50 242.28 50 235.37C50 208.3 50 139.57 50 112.5C50 105.6 55.6 100 62.5 100C103.83 100 215.32 100 256.65 100Z" id="g2zGrpElnb"></path><path d="M200 177.66L265.96 241.49" id="avCX5QgGv"></path><path d="M119.95 177.66L53.99 241.49" id="b3s1ww61jL"></path><path d="M252.13 118.09L159.57 180.85L71.28 118.09" id="g6V5vGdNVf"></path></defs><g><g><g><g><use xlink:href="#g2zGrpElnb" opacity="1" fill-opacity="0" stroke="#ffffff" stroke-width="5" stroke-opacity="1"></use></g></g><g><g><use xlink:href="#avCX5QgGv" opacity="1" fill-opacity="0" stroke="#ffffff" stroke-width="5" stroke-opacity="1"></use></g></g><g><g><use xlink:href="#b3s1ww61jL" opacity="1" fill-opacity="0" stroke="#ffffff" stroke-width="5" stroke-opacity="1"></use></g></g><g><g><use xlink:href="#g6V5vGdNVf" opacity="1" fill-opacity="0" stroke="#ffffff" stroke-width="5" stroke-opacity="1"></use></g></g></g></g></svg>