<?xml version="1.0" encoding="UTF-8" standalone="no"?>
<!DOCTYPE svg PUBLIC "-//W3C//DTD SVG 1.1//EN" "http://www.w3.org/Graphics/SVG/1.1/DTD/svg11.dtd">
<svg version="1.1" xmlns="http://www.w3.org/2000/svg" xmlns:xlink="http://www.w3.org/1999/xlink" preserveAspectRatio="xMidYMid meet" viewBox="0 0 75 25" width="75" height="25"><defs><path d="M21.65 13.67C21.65 15.28 20.34 16.59 18.74 16.59C17.13 16.59 15.82 15.28 15.82 13.67C15.82 12.06 17.13 10.75 18.74 10.75C20.34 10.75 21.65 12.06 21.65 13.67Z" id="b2nzF61NuM"></path><path d="M40.66 13.67C40.66 15.28 39.36 16.59 37.75 16.59C36.14 16.59 34.83 15.28 34.83 13.67C34.83 12.06 36.14 10.75 37.75 10.75C39.36 10.75 40.66 12.06 40.66 13.67Z" id="a38nMQGe0K"></path><path d="M60.06 13.67C60.06 15.28 58.75 16.59 57.14 16.59C55.53 16.59 54.22 15.28 54.22 13.67C54.22 12.06 55.53 10.75 57.14 10.75C58.75 10.75 60.06 12.06 60.06 13.67Z" id="e7EJofOjDw"></path></defs><g><g><g><use xlink:href="#b2nzF61NuM" opacity="1" fill="#515151" fill-opacity="1"></use><g><use xlink:href="#b2nzF61NuM" opacity="1" fill-opacity="0" stroke="#515151" stroke-width="1" stroke-opacity="1"></use></g></g><g><use xlink:href="#a38nMQGe0K" opacity="1" fill="#ffffff" fill-opacity="1"></use><g><use xlink:href="#a38nMQGe0K" opacity="1" fill-opacity="0" stroke="#515151" stroke-width="1" stroke-opacity="1"></use></g></g><g><use xlink:href="#e7EJofOjDw" opacity="1" fill="#ffffff" fill-opacity="1"></use><g><use xlink:href="#e7EJofOjDw" opacity="1" fill-opacity="0" stroke="#515151" stroke-width="1" stroke-opacity="1"></use></g></g></g></g></svg>