<?xml version="1.0" encoding="UTF-8" standalone="no"?>
<!DOCTYPE svg PUBLIC "-//W3C//DTD SVG 1.1//EN" "http://www.w3.org/Graphics/SVG/1.1/DTD/svg11.dtd">
<svg version="1.1" xmlns="http://www.w3.org/2000/svg" xmlns:xlink="http://www.w3.org/1999/xlink" preserveAspectRatio="xMidYMid meet" viewBox="0 0 75 25" width="75" height="25"><defs><path d="M20.78 13.4C20.78 15.01 19.47 16.32 17.86 16.32C16.25 16.32 14.95 15.01 14.95 13.4C14.95 11.79 16.25 10.49 17.86 10.49C19.47 10.49 20.78 11.79 20.78 13.4Z" id="e1oYRVVwZc"></path><path d="M39.79 13.4C39.79 15.01 38.48 16.32 36.87 16.32C35.26 16.32 33.96 15.01 33.96 13.4C33.96 11.79 35.26 10.49 36.87 10.49C38.48 10.49 39.79 11.79 39.79 13.4Z" id="b2k2CUKd3J"></path><path d="M59.18 13.4C59.18 15.01 57.88 16.32 56.27 16.32C54.66 16.32 53.35 15.01 53.35 13.4C53.35 11.79 54.66 10.49 56.27 10.49C57.88 10.49 59.18 11.79 59.18 13.4Z" id="a200uycH7U"></path></defs><g><g><g><use xlink:href="#e1oYRVVwZc" opacity="1" fill="#ffffff" fill-opacity="1"></use><g><use xlink:href="#e1oYRVVwZc" opacity="1" fill-opacity="0" stroke="#515151" stroke-width="1" stroke-opacity="1"></use></g></g><g><use xlink:href="#b2k2CUKd3J" opacity="1" fill="#ffffff" fill-opacity="1"></use><g><use xlink:href="#b2k2CUKd3J" opacity="1" fill-opacity="0" stroke="#515151" stroke-width="1" stroke-opacity="1"></use></g></g><g><use xlink:href="#a200uycH7U" opacity="1" fill="#515151" fill-opacity="1"></use><g><use xlink:href="#a200uycH7U" opacity="1" fill-opacity="0" stroke="#515151" stroke-width="1" stroke-opacity="1"></use></g></g></g></g></svg>