<?xml version="1.0" encoding="UTF-8" standalone="no"?>
<!DOCTYPE svg PUBLIC "-//W3C//DTD SVG 1.1//EN" "http://www.w3.org/Graphics/SVG/1.1/DTD/svg11.dtd">
<svg version="1.1" xmlns="http://www.w3.org/2000/svg" xmlns:xlink="http://www.w3.org/1999/xlink" preserveAspectRatio="xMidYMid meet" viewBox="0 0 75 25" width="75" height="25"><defs><path d="M20.55 13.15C20.55 14.76 19.24 16.07 17.63 16.07C16.02 16.07 14.71 14.76 14.71 13.15C14.71 11.54 16.02 10.24 17.63 10.24C19.24 10.24 20.55 11.54 20.55 13.15Z" id="a29C8z3yUU"></path><path d="M39.56 13.15C39.56 14.76 38.25 16.07 36.64 16.07C35.03 16.07 33.72 14.76 33.72 13.15C33.72 11.54 35.03 10.24 36.64 10.24C38.25 10.24 39.56 11.54 39.56 13.15Z" id="d1c4e09e4K"></path><path d="M58.95 13.15C58.95 14.76 57.64 16.07 56.03 16.07C54.42 16.07 53.12 14.76 53.12 13.15C53.12 11.54 54.42 10.24 56.03 10.24C57.64 10.24 58.95 11.54 58.95 13.15Z" id="by6X1yzYS"></path></defs><g><g><g><use xlink:href="#a29C8z3yUU" opacity="1" fill="#ffffff" fill-opacity="1"></use><g><use xlink:href="#a29C8z3yUU" opacity="1" fill-opacity="0" stroke="#515151" stroke-width="1" stroke-opacity="1"></use></g></g><g><use xlink:href="#d1c4e09e4K" opacity="1" fill="#515151" fill-opacity="1"></use><g><use xlink:href="#d1c4e09e4K" opacity="1" fill-opacity="0" stroke="#515151" stroke-width="1" stroke-opacity="1"></use></g></g><g><use xlink:href="#by6X1yzYS" opacity="1" fill="#ffffff" fill-opacity="1"></use><g><use xlink:href="#by6X1yzYS" opacity="1" fill-opacity="0" stroke="#515151" stroke-width="1" stroke-opacity="1"></use></g></g></g></g></svg>