<?xml version="1.0" encoding="UTF-8" standalone="no"?>
<!DOCTYPE svg PUBLIC "-//W3C//DTD SVG 1.1//EN" "http://www.w3.org/Graphics/SVG/1.1/DTD/svg11.dtd">
<svg version="1.1" xmlns="http://www.w3.org/2000/svg" xmlns:xlink="http://www.w3.org/1999/xlink" preserveAspectRatio="xMidYMid meet" viewBox="0 0 100 100" width="100" height="100"><defs><path d="M66.68 33.32C66.68 42.52 59.21 50 50 50C40.79 50 33.32 42.52 33.32 33.32C33.32 24.11 40.79 16.63 50 16.63C59.21 16.63 66.68 24.11 66.68 33.32Z" id="h3PA9Z5JMu"></path><path d="M30.54 61.31C34.05 58.72 38.3 57.32 42.67 57.32C47.13 57.32 53.97 57.32 58.48 57.32C62.7 57.32 66.78 58.77 70.06 61.42C70.97 62.16 69.51 60.98 70.64 61.89C73.16 63.93 74.62 66.99 74.62 70.23C74.62 70.97 74.62 72.82 74.62 75.78L25.38 75.78C25.38 73.05 25.38 71.35 25.38 70.67C25.38 67.17 27.04 63.89 29.85 61.82C31.07 60.92 29.51 62.07 30.54 61.31Z" id="b15XOWxGq"></path></defs><g><g><g><use xlink:href="#h3PA9Z5JMu" opacity="1" fill="#27190d" fill-opacity="1"></use></g><g><use xlink:href="#b15XOWxGq" opacity="1" fill="#27190d" fill-opacity="1"></use><g><use xlink:href="#b15XOWxGq" opacity="1" fill-opacity="0" stroke="#27190d" stroke-width="5" stroke-opacity="1"></use></g></g></g></g></svg>