<?xml version="1.0" encoding="UTF-8" standalone="no"?>
<!DOCTYPE svg PUBLIC "-//W3C//DTD SVG 1.1//EN" "http://www.w3.org/Graphics/SVG/1.1/DTD/svg11.dtd">
<svg version="1.1" xmlns="http://www.w3.org/2000/svg" xmlns:xlink="http://www.w3.org/1999/xlink" preserveAspectRatio="xMidYMid meet" viewBox="0 0 100 100" width="100" height="100"><defs><path d="M24.4 93.32C22.34 95.49 18.85 95.38 16.92 93.09C16.24 92.28 17.35 93.6 16.55 92.65C14.85 90.63 15.03 87.64 16.96 85.83C21 82.05 30.53 73.13 34.78 69.15C36.15 67.87 38.26 67.84 39.67 69.07C40.53 69.82 40.06 69.41 40.78 70.04C42.5 71.55 42.62 74.19 41.04 75.85C36.94 80.16 28.31 89.22 24.4 93.32Z" id="d7glAJ6kN"></path><path d="M47.41 67.22C48.12 66.44 48.04 65.22 47.23 64.54C46.39 63.82 45.13 62.75 44.23 61.99C43.54 61.4 42.52 61.42 41.86 62.04C41.23 62.63 40.58 63.23 39.97 63.8C39.29 64.44 39.31 65.53 40.02 66.14C40.97 66.95 42.03 67.86 42.87 68.58C43.91 69.47 45.47 69.37 46.38 68.36C46.85 67.84 46.87 67.81 47.41 67.22Z" id="d3UG0H1hZH"></path><path d="M42.42 49.59C40.11 47.54 39.93 44 42.01 41.72C47.08 36.17 59.96 22.06 65.39 16.11C66.62 14.77 68.43 14.13 70.23 14.4C70.84 14.49 69.66 14.31 70.23 14.4C72.21 14.7 74.04 15.64 75.45 17.07C77.53 19.17 82.77 24.49 85.14 26.9C85.52 27.27 86.13 27.25 86.47 26.85C86.92 26.34 87.6 25.54 88.04 25.03C88.4 24.61 88.37 23.99 87.97 23.61C85.65 21.46 80.44 16.63 78.38 14.71C78.38 14.71 74.42 10.97 74.42 10.97C74.17 10.73 75.24 11.76 74.95 11.49C73.76 10.34 72.4 9.37 70.93 8.61C70.21 8.24 70.84 8.56 70.26 8.27C68.54 7.38 66.43 7.73 65.09 9.13C59.18 15.32 43.85 31.38 37.97 37.53C36.39 39.19 35.31 41.26 34.88 43.51C34.66 44.62 35.01 42.82 34.88 43.51C34.21 46.95 35.41 50.48 38.03 52.8C40.62 55.09 47.28 60.99 50.65 63.97C50.82 64.12 51.07 64.11 51.23 63.96C51.94 63.29 53.56 61.75 54.21 61.13C54.51 60.84 54.51 60.35 54.19 60.07C51 57.23 44.89 51.79 42.42 49.59Z" id="lk4cPJCU"></path><path d="M50.62 60.01L83.38 24.07" id="d1o5werLd0"></path></defs><g><g><g><g><use xlink:href="#d7glAJ6kN" opacity="1" fill="#7f3f0e" fill-opacity="1"></use><g><use xlink:href="#d7glAJ6kN" opacity="1" fill-opacity="0" stroke="#7f3f0e" stroke-width="1" stroke-opacity="1"></use></g></g><g><use xlink:href="#d3UG0H1hZH" opacity="1" fill="#7f3f0e" fill-opacity="1"></use><g><use xlink:href="#d3UG0H1hZH" opacity="1" fill-opacity="0" stroke="#7f3f0e" stroke-width="1" stroke-opacity="1"></use></g></g><g><use xlink:href="#lk4cPJCU" opacity="1" fill="#7f3f0e" fill-opacity="1"></use><g><use xlink:href="#lk4cPJCU" opacity="1" fill-opacity="0" stroke="#7f3f0e" stroke-width="1" stroke-opacity="1"></use></g></g><g><use xlink:href="#d1o5werLd0" opacity="1" fill="#7f3f0e" fill-opacity="1"></use><g><use xlink:href="#d1o5werLd0" opacity="1" fill-opacity="0" stroke="#7f3f0e" stroke-width="2" stroke-opacity="1"></use></g></g></g></g></g></svg>