<?xml version="1.0" encoding="UTF-8" standalone="no"?>
<!DOCTYPE svg PUBLIC "-//W3C//DTD SVG 1.1//EN" "http://www.w3.org/Graphics/SVG/1.1/DTD/svg11.dtd">
<svg version="1.1" xmlns="http://www.w3.org/2000/svg" xmlns:xlink="http://www.w3.org/1999/xlink" preserveAspectRatio="xMidYMid meet" viewBox="0 0 100 100" width="100" height="100"><defs><path d="M64.16 26.6L69.81 21.8L74.25 24.95C76.36 23.56 77.69 22.7 78.22 22.35C80.05 21.15 80.12 18.49 78.36 17.2C74.84 14.6 67.55 9.22 63.94 6.55C62.27 5.33 59.91 5.88 58.97 7.72C58.69 8.26 58 9.61 56.89 11.78L61.33 16.06L59.72 23.65L64.16 26.6Z" id="a1Ow9Yt4J7"></path><path d="M23.33 63.29C19.03 68.45 16.34 71.67 15.26 72.96C14.38 74.02 14.57 75.6 15.67 76.42C16.57 77.1 17.3 77.65 18.22 78.33C19.32 79.16 20.88 78.96 21.74 77.89C22.14 77.4 23.13 76.17 24.71 74.2C27.6 76.38 29.41 77.74 30.13 78.28C30.43 78.51 30.85 78.46 31.09 78.16C31.99 77.03 34.39 74 35.32 72.83C35.47 72.64 35.44 72.36 35.24 72.21C33.65 71.02 29.68 68.05 23.33 63.29Z" id="c7dKY6uVds"></path><path d="M16.63 77.21L17.08 79L15.28 79.11L14.95 81.06L13.32 81.16L13.42 82.86L11.44 82.99L11.56 84.79L9.98 84.89L10.11 86.93L8.1 87.39" id="afG2D1MZs"></path><path d="" id="a4Naw5M2ad"></path><path d="M62.23 28.26L60.13 32.07L88.74 53.75C89.08 54.08 89.28 54.29 89.37 54.37C90.48 55.48 90.56 57.25 89.55 58.46C89.52 58.5 89.43 58.61 89.29 58.77L85.83 55.71C70.51 43.78 60.94 36.32 57.11 33.34C56.09 32.54 55.78 31.12 56.39 29.97C56.68 29.42 57.41 28.05 58.58 25.86L62.23 28.26Z" id="a4ZH4ddvlb"></path><path d="M58.67 87.33L55.5 90.31L43.77 81.72L35.37 75.34L33.91 77.21C45.18 85.92 52.22 91.37 55.03 93.54C56.06 94.34 57.51 94.28 58.47 93.4C58.93 92.98 60.07 91.94 61.91 90.26L58.67 87.33Z" id="aPpwIQ2xO"></path><path d="M63.95 88.89C70.83 85.37 75.13 83.17 76.84 82.29C80.54 80.39 83.29 77.05 84.43 73.05C84.91 71.35 86.12 67.11 88.05 60.32L84.81 57.54C77.81 60.46 73.44 62.28 71.7 63.01C67.6 64.72 64.53 68.25 63.42 72.55C62.97 74.25 61.87 78.52 60.09 85.34L63.95 88.89Z" id="b1NRD9FfsH"></path></defs><g><g><g><g><use xlink:href="#a1Ow9Yt4J7" opacity="1" fill="#ffffff" fill-opacity="1"></use><g><use xlink:href="#a1Ow9Yt4J7" opacity="1" fill-opacity="0" stroke="#ffffff" stroke-width="1" stroke-opacity="1"></use></g></g><g><g><use xlink:href="#c7dKY6uVds" opacity="1" fill="#ffffff" fill-opacity="1"></use><g><use xlink:href="#c7dKY6uVds" opacity="1" fill-opacity="0" stroke="#ffffff" stroke-width="1" stroke-opacity="1"></use></g></g><g><use xlink:href="#afG2D1MZs" opacity="1" fill="#ffffff" fill-opacity="1"></use><g><use xlink:href="#afG2D1MZs" opacity="1" fill-opacity="0" stroke="#ffffff" stroke-width="1" stroke-opacity="1"></use></g></g></g><g><use xlink:href="#a4Naw5M2ad" opacity="1" fill="#ffffff" fill-opacity="1"></use><g><use xlink:href="#a4Naw5M2ad" opacity="1" fill-opacity="0" stroke="#ffffff" stroke-width="1" stroke-opacity="1"></use></g></g><g><use xlink:href="#a4ZH4ddvlb" opacity="1" fill="#ffffff" fill-opacity="1"></use><g><use xlink:href="#a4ZH4ddvlb" opacity="1" fill-opacity="0" stroke="#ffffff" stroke-width="1" stroke-opacity="1"></use></g></g><g><use xlink:href="#aPpwIQ2xO" opacity="1" fill="#ffffff" fill-opacity="1"></use><g><use xlink:href="#aPpwIQ2xO" opacity="1" fill-opacity="0" stroke="#ffffff" stroke-width="1" stroke-opacity="1"></use></g></g><g><use xlink:href="#b1NRD9FfsH" opacity="1" fill="#ffffff" fill-opacity="1"></use><g><use xlink:href="#b1NRD9FfsH" opacity="1" fill-opacity="0" stroke="#ffffff" stroke-width="1" stroke-opacity="1"></use></g></g></g></g></g></svg>